<svg xmlns="http://www.w3.org/2000/svg" viewBox="0 0 880 430" width="880" height="430" font-family="ui-monospace,SFMono-Regular,'SF Mono',Menlo,Consolas,'DejaVu Sans Mono','Liberation Mono',monospace" role="img"><title>Flint subsystem map</title><defs><linearGradient id="sw"><stop offset="0" stop-color="#ff7a2f" stop-opacity="0"/><stop offset="1" stop-color="#ff7a2f" stop-opacity=".14"/></linearGradient></defs><style><![CDATA[.fx{opacity:0}.cb{stroke:#232a35;fill:#11151c}.ct{fill:#69737f}@keyframes b0b{0%,14.20%{stroke:#232a35;fill:#11151c}17.54%,100%{stroke:#5b6672;fill:#151a21}}@keyframes b0t{0%,14.20%{fill:#69737f}17.54%,100%{fill:#cfd8e3}}.b0 .cb{animation:b0b 7.5s infinite}.b0 .ct{animation:b0t 7.5s infinite}@keyframes b1b{0%,33.52%{stroke:#232a35;fill:#11151c}36.86%,100%{stroke:#ff7a2f;fill:#1c1610}}@keyframes b1t{0%,33.52%{fill:#69737f}36.86%,100%{fill:#ff7a2f}}.b1 .cb{animation:b1b 7.5s infinite}.b1 .ct{animation:b1t 7.5s infinite}@keyframes b2b{0%,52.84%{stroke:#232a35;fill:#11151c}56.17%,100%{stroke:#ff7a2f;fill:#1c1610}}@keyframes b2t{0%,52.84%{fill:#69737f}56.17%,100%{fill:#ff7a2f}}.b2 .cb{animation:b2b 7.5s infinite}.b2 .ct{animation:b2t 7.5s infinite}@keyframes b3b{0%,72.16%{stroke:#232a35;fill:#11151c}75.49%,100%{stroke:#ff7a2f;fill:#1c1610}}@keyframes b3t{0%,72.16%{fill:#69737f}75.49%,100%{fill:#ff7a2f}}.b3 .cb{animation:b3b 7.5s infinite}.b3 .ct{animation:b3t 7.5s infinite}@keyframes b4b{0%,14.20%{stroke:#232a35;fill:#11151c}17.54%,100%{stroke:#ff7a2f;fill:#1c1610}}@keyframes b4t{0%,14.20%{fill:#69737f}17.54%,100%{fill:#ff7a2f}}.b4 .cb{animation:b4b 7.5s infinite}.b4 .ct{animation:b4t 7.5s infinite}@keyframes b5b{0%,33.52%{stroke:#232a35;fill:#11151c}36.86%,100%{stroke:#ff7a2f;fill:#1c1610}}@keyframes b5t{0%,33.52%{fill:#69737f}36.86%,100%{fill:#ff7a2f}}.b5 .cb{animation:b5b 7.5s infinite}.b5 .ct{animation:b5t 7.5s infinite}@keyframes b6b{0%,52.84%{stroke:#232a35;fill:#11151c}56.17%,100%{stroke:#ff7a2f;fill:#1c1610}}@keyframes b6t{0%,52.84%{fill:#69737f}56.17%,100%{fill:#ff7a2f}}.b6 .cb{animation:b6b 7.5s infinite}.b6 .ct{animation:b6t 7.5s infinite}@keyframes b7b{0%,72.16%{stroke:#232a35;fill:#11151c}75.49%,100%{stroke:#ff7a2f;fill:#1c1610}}@keyframes b7t{0%,72.16%{fill:#69737f}75.49%,100%{fill:#ff7a2f}}.b7 .cb{animation:b7b 7.5s infinite}.b7 .ct{animation:b7t 7.5s infinite}@keyframes b8b{0%,14.20%{stroke:#232a35;fill:#11151c}17.54%,100%{stroke:#ff7a2f;fill:#1c1610}}@keyframes b8t{0%,14.20%{fill:#69737f}17.54%,100%{fill:#ff7a2f}}.b8 .cb{animation:b8b 7.5s infinite}.b8 .ct{animation:b8t 7.5s infinite}@keyframes b9b{0%,33.52%{stroke:#232a35;fill:#11151c}36.86%,100%{stroke:#ff7a2f;fill:#1c1610}}@keyframes b9t{0%,33.52%{fill:#69737f}36.86%,100%{fill:#ff7a2f}}.b9 .cb{animation:b9b 7.5s infinite}.b9 .ct{animation:b9t 7.5s infinite}@keyframes b10b{0%,52.84%{stroke:#232a35;fill:#11151c}56.17%,100%{stroke:#a78bfa;fill:#171425}}@keyframes b10t{0%,52.84%{fill:#69737f}56.17%,100%{fill:#a78bfa}}.b10 .cb{animation:b10b 7.5s infinite}.b10 .ct{animation:b10t 7.5s infinite}@keyframes b11b{0%,72.16%{stroke:#232a35;fill:#11151c}75.49%,100%{stroke:#5b6672;fill:#151a21}}@keyframes b11t{0%,72.16%{fill:#69737f}75.49%,100%{fill:#cfd8e3}}.b11 .cb{animation:b11b 7.5s infinite}.b11 .ct{animation:b11t 7.5s infinite}@keyframes sweep{0%{transform:translateX(-120px)}100%{transform:translateX(880px)}}.sweep{animation:sweep 7.5s linear infinite}@media (prefers-reduced-motion:reduce){*{animation:none!important}.fx{opacity:1!important}.transient{opacity:0!important}}]]></style><rect x="90" y="20" width="700" height="390" fill="#0c1016" stroke="#232a35" rx="14"/><rect x="74" y="46" width="16" height="6" fill="#2c333d" stroke="none" rx="1"/><rect x="790" y="46" width="16" height="6" fill="#2c333d" stroke="none" rx="1"/><rect x="74" y="72" width="16" height="6" fill="#2c333d" stroke="none" rx="1"/><rect x="790" y="72" width="16" height="6" fill="#2c333d" stroke="none" rx="1"/><rect x="74" y="98" width="16" height="6" fill="#2c333d" stroke="none" rx="1"/><rect x="790" y="98" width="16" height="6" fill="#2c333d" stroke="none" rx="1"/><rect x="74" y="124" width="16" height="6" fill="#2c333d" stroke="none" rx="1"/><rect x="790" y="124" width="16" height="6" fill="#2c333d" stroke="none" rx="1"/><rect x="74" y="150" width="16" height="6" fill="#2c333d" stroke="none" rx="1"/><rect x="790" y="150" width="16" height="6" fill="#2c333d" stroke="none" rx="1"/><rect x="74" y="176" width="16" height="6" fill="#2c333d" stroke="none" rx="1"/><rect x="790" y="176" width="16" height="6" fill="#2c333d" stroke="none" rx="1"/><rect x="74" y="202" width="16" height="6" fill="#2c333d" stroke="none" rx="1"/><rect x="790" y="202" width="16" height="6" fill="#2c333d" stroke="none" rx="1"/><rect x="74" y="228" width="16" height="6" fill="#2c333d" stroke="none" rx="1"/><rect x="790" y="228" width="16" height="6" fill="#2c333d" stroke="none" rx="1"/><rect x="74" y="254" width="16" height="6" fill="#2c333d" stroke="none" rx="1"/><rect x="790" y="254" width="16" height="6" fill="#2c333d" stroke="none" rx="1"/><rect x="74" y="280" width="16" height="6" fill="#2c333d" stroke="none" rx="1"/><rect x="790" y="280" width="16" height="6" fill="#2c333d" stroke="none" rx="1"/><rect x="74" y="306" width="16" height="6" fill="#2c333d" stroke="none" rx="1"/><rect x="790" y="306" width="16" height="6" fill="#2c333d" stroke="none" rx="1"/><rect x="74" y="332" width="16" height="6" fill="#2c333d" stroke="none" rx="1"/><rect x="790" y="332" width="16" height="6" fill="#2c333d" stroke="none" rx="1"/><rect x="74" y="358" width="16" height="6" fill="#2c333d" stroke="none" rx="1"/><rect x="790" y="358" width="16" height="6" fill="#2c333d" stroke="none" rx="1"/><rect x="74" y="384" width="16" height="6" fill="#2c333d" stroke="none" rx="1"/><rect x="790" y="384" width="16" height="6" fill="#2c333d" stroke="none" rx="1"/><circle cx="112" cy="42" r="5" fill="none" stroke="#232a35"/><text x="440" y="46" fill="#69737f" font-size="10" text-anchor="middle" letter-spacing="1">F L I N T   ·   x86_64   ·   no_std rust</text><g class="b0"><rect x="110" y="64" width="150" height="94" fill="#11151c" stroke="#232a35" rx="6" class="cb"/><text x="124" y="98" fill="#69737f" font-size="13.5" class="ct">boot</text><text x="124" y="118" fill="#69737f" font-size="10.5">bios -&gt; bootimage</text><text x="246" y="146" fill="#5b6672" font-size="9.5" text-anchor="end">hw</text></g><g class="b1"><rect x="280" y="64" width="150" height="94" fill="#11151c" stroke="#232a35" rx="6" class="cb"/><text x="294" y="98" fill="#69737f" font-size="13.5" class="ct">gdt + tss</text><text x="294" y="118" fill="#69737f" font-size="10.5">ring 0 / ring 3</text><text x="416" y="146" fill="#4a3a2c" font-size="9.5" text-anchor="end">ring 0</text></g><g class="b2"><rect x="450" y="64" width="150" height="94" fill="#11151c" stroke="#232a35" rx="6" class="cb"/><text x="464" y="98" fill="#69737f" font-size="13.5" class="ct">idt</text><text x="464" y="118" fill="#69737f" font-size="10.5">256 vectors</text><text x="586" y="146" fill="#4a3a2c" font-size="9.5" text-anchor="end">ring 0</text></g><g class="b3"><rect x="620" y="64" width="150" height="94" fill="#11151c" stroke="#232a35" rx="6" class="cb"/><text x="634" y="98" fill="#69737f" font-size="13.5" class="ct">long mode</text><text x="634" y="118" fill="#69737f" font-size="10.5">cr0, cr4, efer</text><text x="756" y="146" fill="#4a3a2c" font-size="9.5" text-anchor="end">ring 0</text></g><g class="b4"><rect x="110" y="174" width="150" height="94" fill="#11151c" stroke="#232a35" rx="6" class="cb"/><text x="124" y="208" fill="#69737f" font-size="13.5" class="ct">frames</text><text x="124" y="228" fill="#69737f" font-size="10.5">bump + free list</text><text x="246" y="256" fill="#4a3a2c" font-size="9.5" text-anchor="end">ring 0</text></g><g class="b5"><rect x="280" y="174" width="150" height="94" fill="#11151c" stroke="#232a35" rx="6" class="cb"/><text x="294" y="208" fill="#69737f" font-size="13.5" class="ct">paging</text><text x="294" y="228" fill="#69737f" font-size="10.5">4 level, PML4</text><text x="416" y="256" fill="#4a3a2c" font-size="9.5" text-anchor="end">ring 0</text></g><g class="b6"><rect x="450" y="174" width="150" height="94" fill="#11151c" stroke="#232a35" rx="6" class="cb"/><text x="464" y="208" fill="#69737f" font-size="13.5" class="ct">kernel heap</text><text x="464" y="228" fill="#69737f" font-size="10.5">linked list alloc</text><text x="586" y="256" fill="#4a3a2c" font-size="9.5" text-anchor="end">ring 0</text></g><g class="b7"><rect x="620" y="174" width="150" height="94" fill="#11151c" stroke="#232a35" rx="6" class="cb"/><text x="634" y="208" fill="#69737f" font-size="13.5" class="ct">syscall</text><text x="634" y="228" fill="#69737f" font-size="10.5">int 0x80 gate</text><text x="756" y="256" fill="#4a3a2c" font-size="9.5" text-anchor="end">ring 0</text></g><g class="b8"><rect x="110" y="284" width="150" height="94" fill="#11151c" stroke="#232a35" rx="6" class="cb"/><text x="124" y="318" fill="#69737f" font-size="13.5" class="ct">scheduler</text><text x="124" y="338" fill="#69737f" font-size="10.5">round robin</text><text x="246" y="366" fill="#4a3a2c" font-size="9.5" text-anchor="end">ring 0</text></g><g class="b9"><rect x="280" y="284" width="150" height="94" fill="#11151c" stroke="#232a35" rx="6" class="cb"/><text x="294" y="318" fill="#69737f" font-size="13.5" class="ct">context switch</text><text x="294" y="338" fill="#69737f" font-size="10.5">swap rsp, cr3</text><text x="416" y="366" fill="#4a3a2c" font-size="9.5" text-anchor="end">ring 0</text></g><g class="b10"><rect x="450" y="284" width="150" height="94" fill="#11151c" stroke="#232a35" rx="6" class="cb"/><text x="464" y="318" fill="#69737f" font-size="13.5" class="ct">shell</text><text x="464" y="338" fill="#69737f" font-size="10.5">ring 3, pid 2</text><text x="586" y="366" fill="#4b3d6b" font-size="9.5" text-anchor="end">ring 3</text></g><g class="b11"><rect x="620" y="284" width="150" height="94" fill="#11151c" stroke="#232a35" rx="6" class="cb"/><text x="634" y="318" fill="#69737f" font-size="13.5" class="ct">uart 16550</text><text x="634" y="338" fill="#69737f" font-size="10.5">serial console</text><text x="756" y="366" fill="#5b6672" font-size="9.5" text-anchor="end">hw</text></g><rect class="sweep" x="0" y="20" width="120" height="390" fill="url(#sw)"/></svg>