<svg xmlns="http://www.w3.org/2000/svg" viewBox="0 0 880 240" width="880" height="240" font-family="ui-monospace,SFMono-Regular,'SF Mono',Menlo,Consolas,'DejaVu Sans Mono','Liberation Mono',monospace" role="img"><title>Frame allocator</title><defs></defs><style><![CDATA[.fx{opacity:0}@keyframes m0{0%,6.00%{opacity:0}6.50%,100%{opacity:1}}.m0{animation:m0 10.0s infinite}@keyframes m1{0%,6.28%{opacity:0}6.78%,100%{opacity:1}}.m1{animation:m1 10.0s infinite}@keyframes m2{0%,6.56%{opacity:0}7.06%,100%{opacity:1}}.m2{animation:m2 10.0s infinite}@keyframes m3{0%,6.84%{opacity:0}7.34%,100%{opacity:1}}.m3{animation:m3 10.0s infinite}@keyframes m4{0%,7.12%{opacity:0}7.62%,100%{opacity:1}}.m4{animation:m4 10.0s infinite}@keyframes m5{0%,7.40%{opacity:0}7.90%,100%{opacity:1}}.m5{animation:m5 10.0s infinite}@keyframes m6{0%,7.68%{opacity:0}8.18%,100%{opacity:1}}.m6{animation:m6 10.0s infinite}@keyframes m7{0%,7.96%{opacity:0}8.46%,100%{opacity:1}}.m7{animation:m7 10.0s infinite}@keyframes m8{0%,8.24%{opacity:0}8.74%,100%{opacity:1}}.m8{animation:m8 10.0s infinite}@keyframes m9{0%,8.52%{opacity:0}9.02%,100%{opacity:1}}.m9{animation:m9 10.0s infinite}@keyframes m10{0%,8.80%{opacity:0}9.30%,100%{opacity:1}}.m10{animation:m10 10.0s infinite}@keyframes m11{0%,9.08%{opacity:0}9.58%,100%{opacity:1}}.m11{animation:m11 10.0s infinite}@keyframes m12{0%,9.36%{opacity:0}9.86%,100%{opacity:1}}.m12{animation:m12 10.0s infinite}@keyframes m13{0%,9.64%{opacity:0}10.14%,100%{opacity:1}}.m13{animation:m13 10.0s infinite}@keyframes m14{0%,16.00%{opacity:0}16.50%,100%{opacity:1}}.m14{animation:m14 10.0s infinite}@keyframes m15{0%,16.28%{opacity:0}16.78%,100%{opacity:1}}.m15{animation:m15 10.0s infinite}@keyframes m16{0%,16.56%{opacity:0}17.06%,100%{opacity:1}}.m16{animation:m16 10.0s infinite}@keyframes m17{0%,16.84%{opacity:0}17.34%,100%{opacity:1}}.m17{animation:m17 10.0s infinite}@keyframes m18{0%,17.12%{opacity:0}17.62%,100%{opacity:1}}.m18{animation:m18 10.0s infinite}@keyframes m19{0%,17.40%{opacity:0}17.90%,100%{opacity:1}}.m19{animation:m19 10.0s infinite}@keyframes m20{0%,17.68%{opacity:0}18.18%,100%{opacity:1}}.m20{animation:m20 10.0s infinite}@keyframes m21{0%,17.96%{opacity:0}18.46%,100%{opacity:1}}.m21{animation:m21 10.0s infinite}@keyframes m22{0%,26.00%{opacity:0}26.50%,100%{opacity:1}}.m22{animation:m22 10.0s infinite}@keyframes m23{0%,26.28%{opacity:0}26.78%,100%{opacity:1}}.m23{animation:m23 10.0s infinite}@keyframes m24{0%,26.56%{opacity:0}27.06%,100%{opacity:1}}.m24{animation:m24 10.0s infinite}@keyframes m25{0%,26.84%{opacity:0}27.34%,100%{opacity:1}}.m25{animation:m25 10.0s infinite}@keyframes m26{0%,27.12%{opacity:0}27.62%,100%{opacity:1}}.m26{animation:m26 10.0s infinite}@keyframes m27{0%,27.40%{opacity:0}27.90%,100%{opacity:1}}.m27{animation:m27 10.0s infinite}@keyframes m28{0%,27.68%{opacity:0}28.18%,100%{opacity:1}}.m28{animation:m28 10.0s infinite}@keyframes m29{0%,27.96%{opacity:0}28.46%,100%{opacity:1}}.m29{animation:m29 10.0s infinite}@keyframes m30{0%,28.24%{opacity:0}28.74%,100%{opacity:1}}.m30{animation:m30 10.0s infinite}@keyframes m31{0%,28.52%{opacity:0}29.02%,100%{opacity:1}}.m31{animation:m31 10.0s infinite}@keyframes m32{0%,28.80%{opacity:0}29.30%,100%{opacity:1}}.m32{animation:m32 10.0s infinite}@keyframes m33{0%,29.08%{opacity:0}29.58%,100%{opacity:1}}.m33{animation:m33 10.0s infinite}@keyframes m34{0%,29.36%{opacity:0}29.86%,100%{opacity:1}}.m34{animation:m34 10.0s infinite}@keyframes m35{0%,29.64%{opacity:0}30.14%,100%{opacity:1}}.m35{animation:m35 10.0s infinite}@keyframes m36{0%,29.92%{opacity:0}30.42%,100%{opacity:1}}.m36{animation:m36 10.0s infinite}@keyframes m37{0%,30.20%{opacity:0}30.70%,100%{opacity:1}}.m37{animation:m37 10.0s infinite}@keyframes m38{0%,30.48%{opacity:0}30.98%,100%{opacity:1}}.m38{animation:m38 10.0s infinite}@keyframes m39{0%,30.76%{opacity:0}31.26%,100%{opacity:1}}.m39{animation:m39 10.0s infinite}@keyframes m40{0%,31.04%{opacity:0}31.54%,100%{opacity:1}}.m40{animation:m40 10.0s infinite}@keyframes m41{0%,31.32%{opacity:0}31.82%,100%{opacity:1}}.m41{animation:m41 10.0s infinite}@keyframes m42{0%,31.60%{opacity:0}32.10%,100%{opacity:1}}.m42{animation:m42 10.0s infinite}@keyframes m43{0%,31.88%{opacity:0}32.38%,100%{opacity:1}}.m43{animation:m43 10.0s infinite}@keyframes m44{0%,32.16%{opacity:0}32.66%,100%{opacity:1}}.m44{animation:m44 10.0s infinite}@keyframes m45{0%,32.44%{opacity:0}32.94%,100%{opacity:1}}.m45{animation:m45 10.0s infinite}@keyframes m46{0%,40.00%{opacity:0}40.50%,100%{opacity:1}}.m46{animation:m46 10.0s infinite}@keyframes m47{0%,40.28%{opacity:0}40.78%,100%{opacity:1}}.m47{animation:m47 10.0s infinite}@keyframes m48{0%,40.56%{opacity:0}41.06%,100%{opacity:1}}.m48{animation:m48 10.0s infinite}@keyframes m49{0%,40.84%{opacity:0}41.34%,100%{opacity:1}}.m49{animation:m49 10.0s infinite}@keyframes m50{0%,41.12%{opacity:0}41.62%,100%{opacity:1}}.m50{animation:m50 10.0s infinite}@keyframes m51{0%,41.40%{opacity:0}41.90%,100%{opacity:1}}.m51{animation:m51 10.0s infinite}@keyframes m52{0%,41.68%{opacity:0}42.18%,100%{opacity:1}}.m52{animation:m52 10.0s infinite}@keyframes m53{0%,41.96%{opacity:0}42.46%,100%{opacity:1}}.m53{animation:m53 10.0s infinite}@keyframes m54{0%,42.24%{opacity:0}42.74%,100%{opacity:1}}.m54{animation:m54 10.0s infinite}@keyframes m55{0%,42.52%{opacity:0}43.02%,100%{opacity:1}}.m55{animation:m55 10.0s infinite}@keyframes m56{0%,42.80%{opacity:0}43.30%,100%{opacity:1}}.m56{animation:m56 10.0s infinite}@keyframes m57{0%,43.08%{opacity:0}43.58%,100%{opacity:1}}.m57{animation:m57 10.0s infinite}@keyframes m58{0%,43.36%{opacity:0}43.86%,100%{opacity:1}}.m58{animation:m58 10.0s infinite}@keyframes m59{0%,43.64%{opacity:0}44.14%,100%{opacity:1}}.m59{animation:m59 10.0s infinite}@keyframes m60{0%,43.92%{opacity:0}44.42%,100%{opacity:1}}.m60{animation:m60 10.0s infinite}@keyframes m61{0%,44.20%{opacity:0}44.70%,100%{opacity:1}}.m61{animation:m61 10.0s infinite}@keyframes m62{0%,44.48%{opacity:0}44.98%,100%{opacity:1}}.m62{animation:m62 10.0s infinite}@keyframes m63{0%,44.76%{opacity:0}45.26%,100%{opacity:1}}.m63{animation:m63 10.0s infinite}@keyframes m64{0%,54.00%{opacity:0}54.50%,70.00%{opacity:1}70.50%,100%{opacity:0}}.m64{animation:m64 10.0s infinite}@keyframes m65{0%,54.28%{opacity:0}54.78%,70.30%{opacity:1}70.80%,100%{opacity:0}}.m65{animation:m65 10.0s infinite}@keyframes m66{0%,54.56%{opacity:0}55.06%,70.60%{opacity:1}71.10%,100%{opacity:0}}.m66{animation:m66 10.0s infinite}@keyframes m67{0%,54.84%{opacity:0}55.34%,70.90%{opacity:1}71.40%,100%{opacity:0}}.m67{animation:m67 10.0s infinite}@keyframes m68{0%,55.12%{opacity:0}55.62%,71.20%{opacity:1}71.70%,100%{opacity:0}}.m68{animation:m68 10.0s infinite}@keyframes m69{0%,55.40%{opacity:0}55.90%,71.50%{opacity:1}72.00%,100%{opacity:0}}.m69{animation:m69 10.0s infinite}@keyframes m70{0%,55.68%{opacity:0}56.18%,71.80%{opacity:1}72.30%,100%{opacity:0}}.m70{animation:m70 10.0s infinite}@keyframes m71{0%,55.96%{opacity:0}56.46%,72.10%{opacity:1}72.60%,100%{opacity:0}}.m71{animation:m71 10.0s infinite}@keyframes m72{0%,56.24%{opacity:0}56.74%,72.40%{opacity:1}72.90%,100%{opacity:0}}.m72{animation:m72 10.0s infinite}@keyframes m73{0%,56.52%{opacity:0}57.02%,72.70%{opacity:1}73.20%,100%{opacity:0}}.m73{animation:m73 10.0s infinite}@keyframes k0{0%,6.00%{opacity:0}6.50%,16.00%{opacity:1}16.50%,100%{opacity:0}}.k0{animation:k0 10.0s infinite}@keyframes k1{0%,16.00%{opacity:0}16.50%,29.00%{opacity:1}29.50%,100%{opacity:0}}.k1{animation:k1 10.0s infinite}@keyframes k2{0%,29.00%{opacity:0}29.50%,43.00%{opacity:1}43.50%,100%{opacity:0}}.k2{animation:k2 10.0s infinite}@keyframes k3{0%,43.00%{opacity:0}43.50%,57.00%{opacity:1}57.50%,100%{opacity:0}}.k3{animation:k3 10.0s infinite}@keyframes k4{0%,57.00%{opacity:0}57.50%,73.00%{opacity:1}73.50%,100%{opacity:0}}.k4{animation:k4 10.0s infinite}@keyframes k5{0%,73.00%{opacity:0}73.50%,100.00%{opacity:1}100.00%,100%{opacity:0}}.k5{animation:k5 10.0s infinite}@media (prefers-reduced-motion:reduce){*{animation:none!important}.fx{opacity:1!important}.transient{opacity:0!important}}]]></style><rect x="0.5" y="0.5" width="879" height="239" fill="#0a0c10" stroke="#232a35" rx="12"/><text x="20" y="34" fill="#69737f" font-size="10" letter-spacing="2">PHYSICAL FRAMES</text><text x="860" y="34" fill="#69737f" font-size="11" text-anchor="end">96 of 512 shown, 4 KiB each</text><rect x="26" y="84" width="22" height="16" fill="#141922" stroke="#1d232d" rx="2"/><rect x="52" y="84" width="22" height="16" fill="#141922" stroke="#1d232d" rx="2"/><rect x="78" y="84" width="22" height="16" fill="#141922" stroke="#1d232d" rx="2"/><rect x="104" y="84" width="22" height="16" fill="#141922" stroke="#1d232d" rx="2"/><rect x="130" y="84" width="22" height="16" fill="#141922" stroke="#1d232d" rx="2"/><rect x="156" y="84" width="22" height="16" fill="#141922" stroke="#1d232d" rx="2"/><rect x="182" y="84" width="22" height="16" fill="#141922" stroke="#1d232d" rx="2"/><rect x="208" y="84" width="22" height="16" fill="#141922" stroke="#1d232d" rx="2"/><rect x="234" y="84" width="22" height="16" fill="#141922" stroke="#1d232d" rx="2"/><rect x="260" y="84" width="22" height="16" fill="#141922" stroke="#1d232d" rx="2"/><rect x="286" y="84" width="22" height="16" fill="#141922" stroke="#1d232d" rx="2"/><rect x="312" y="84" width="22" height="16" fill="#141922" stroke="#1d232d" rx="2"/><rect x="338" y="84" width="22" height="16" fill="#141922" stroke="#1d232d" rx="2"/><rect x="364" y="84" width="22" height="16" fill="#141922" stroke="#1d232d" rx="2"/><rect x="390" y="84" width="22" height="16" fill="#141922" stroke="#1d232d" rx="2"/><rect x="416" y="84" width="22" height="16" fill="#141922" stroke="#1d232d" rx="2"/><rect x="442" y="84" width="22" height="16" fill="#141922" stroke="#1d232d" rx="2"/><rect x="468" y="84" width="22" height="16" fill="#141922" stroke="#1d232d" rx="2"/><rect x="494" y="84" width="22" height="16" fill="#141922" stroke="#1d232d" rx="2"/><rect x="520" y="84" width="22" height="16" fill="#141922" stroke="#1d232d" rx="2"/><rect x="546" y="84" width="22" height="16" fill="#141922" stroke="#1d232d" rx="2"/><rect x="572" y="84" width="22" height="16" fill="#141922" stroke="#1d232d" rx="2"/><rect x="598" y="84" width="22" height="16" fill="#141922" stroke="#1d232d" rx="2"/><rect x="624" y="84" width="22" height="16" fill="#141922" stroke="#1d232d" rx="2"/><rect x="650" y="84" width="22" height="16" fill="#141922" stroke="#1d232d" rx="2"/><rect x="676" y="84" width="22" height="16" fill="#141922" stroke="#1d232d" rx="2"/><rect x="702" y="84" width="22" height="16" fill="#141922" stroke="#1d232d" rx="2"/><rect x="728" y="84" width="22" height="16" fill="#141922" stroke="#1d232d" rx="2"/><rect x="754" y="84" width="22" height="16" fill="#141922" stroke="#1d232d" rx="2"/><rect x="780" y="84" width="22" height="16" fill="#141922" stroke="#1d232d" rx="2"/><rect x="806" y="84" width="22" height="16" fill="#141922" stroke="#1d232d" rx="2"/><rect x="832" y="84" width="22" height="16" fill="#141922" stroke="#1d232d" rx="2"/><rect x="26" y="108" width="22" height="16" fill="#141922" stroke="#1d232d" rx="2"/><rect x="52" y="108" width="22" height="16" fill="#141922" stroke="#1d232d" rx="2"/><rect x="78" y="108" width="22" height="16" fill="#141922" stroke="#1d232d" rx="2"/><rect x="104" y="108" width="22" height="16" fill="#141922" stroke="#1d232d" rx="2"/><rect x="130" y="108" width="22" height="16" fill="#141922" stroke="#1d232d" rx="2"/><rect x="156" y="108" width="22" height="16" fill="#141922" stroke="#1d232d" rx="2"/><rect x="182" y="108" width="22" height="16" fill="#141922" stroke="#1d232d" rx="2"/><rect x="208" y="108" width="22" height="16" fill="#141922" stroke="#1d232d" rx="2"/><rect x="234" y="108" width="22" height="16" fill="#141922" stroke="#1d232d" rx="2"/><rect x="260" y="108" width="22" height="16" fill="#141922" stroke="#1d232d" rx="2"/><rect x="286" y="108" width="22" height="16" fill="#141922" stroke="#1d232d" rx="2"/><rect x="312" y="108" width="22" height="16" fill="#141922" stroke="#1d232d" rx="2"/><rect x="338" y="108" width="22" height="16" fill="#141922" stroke="#1d232d" rx="2"/><rect x="364" y="108" width="22" height="16" fill="#141922" stroke="#1d232d" rx="2"/><rect x="390" y="108" width="22" height="16" fill="#141922" stroke="#1d232d" rx="2"/><rect x="416" y="108" width="22" height="16" fill="#141922" stroke="#1d232d" rx="2"/><rect x="442" y="108" width="22" height="16" fill="#141922" stroke="#1d232d" rx="2"/><rect x="468" y="108" width="22" height="16" fill="#141922" stroke="#1d232d" rx="2"/><rect x="494" y="108" width="22" height="16" fill="#141922" stroke="#1d232d" rx="2"/><rect x="520" y="108" width="22" height="16" fill="#141922" stroke="#1d232d" rx="2"/><rect x="546" y="108" width="22" height="16" fill="#141922" stroke="#1d232d" rx="2"/><rect x="572" y="108" width="22" height="16" fill="#141922" stroke="#1d232d" rx="2"/><rect x="598" y="108" width="22" height="16" fill="#141922" stroke="#1d232d" rx="2"/><rect x="624" y="108" width="22" height="16" fill="#141922" stroke="#1d232d" rx="2"/><rect x="650" y="108" width="22" height="16" fill="#141922" stroke="#1d232d" rx="2"/><rect x="676" y="108" width="22" height="16" fill="#141922" stroke="#1d232d" rx="2"/><rect x="702" y="108" width="22" height="16" fill="#141922" stroke="#1d232d" rx="2"/><rect x="728" y="108" width="22" height="16" fill="#141922" stroke="#1d232d" rx="2"/><rect x="754" y="108" width="22" height="16" fill="#141922" stroke="#1d232d" rx="2"/><rect x="780" y="108" width="22" height="16" fill="#141922" stroke="#1d232d" rx="2"/><rect x="806" y="108" width="22" height="16" fill="#141922" stroke="#1d232d" rx="2"/><rect x="832" y="108" width="22" height="16" fill="#141922" stroke="#1d232d" rx="2"/><rect x="26" y="132" width="22" height="16" fill="#141922" stroke="#1d232d" rx="2"/><rect x="52" y="132" width="22" height="16" fill="#141922" stroke="#1d232d" rx="2"/><rect x="78" y="132" width="22" height="16" fill="#141922" stroke="#1d232d" rx="2"/><rect x="104" y="132" width="22" height="16" fill="#141922" stroke="#1d232d" rx="2"/><rect x="130" y="132" width="22" height="16" fill="#141922" stroke="#1d232d" rx="2"/><rect x="156" y="132" width="22" height="16" fill="#141922" stroke="#1d232d" rx="2"/><rect x="182" y="132" width="22" height="16" fill="#141922" stroke="#1d232d" rx="2"/><rect x="208" y="132" width="22" height="16" fill="#141922" stroke="#1d232d" rx="2"/><rect x="234" y="132" width="22" height="16" fill="#141922" stroke="#1d232d" rx="2"/><rect x="260" y="132" width="22" height="16" fill="#141922" stroke="#1d232d" rx="2"/><rect x="286" y="132" width="22" height="16" fill="#141922" stroke="#1d232d" rx="2"/><rect x="312" y="132" width="22" height="16" fill="#141922" stroke="#1d232d" rx="2"/><rect x="338" y="132" width="22" height="16" fill="#141922" stroke="#1d232d" rx="2"/><rect x="364" y="132" width="22" height="16" fill="#141922" stroke="#1d232d" rx="2"/><rect x="390" y="132" width="22" height="16" fill="#141922" stroke="#1d232d" rx="2"/><rect x="416" y="132" width="22" height="16" fill="#141922" stroke="#1d232d" rx="2"/><rect x="442" y="132" width="22" height="16" fill="#141922" stroke="#1d232d" rx="2"/><rect x="468" y="132" width="22" height="16" fill="#141922" stroke="#1d232d" rx="2"/><rect x="494" y="132" width="22" height="16" fill="#141922" stroke="#1d232d" rx="2"/><rect x="520" y="132" width="22" height="16" fill="#141922" stroke="#1d232d" rx="2"/><rect x="546" y="132" width="22" height="16" fill="#141922" stroke="#1d232d" rx="2"/><rect x="572" y="132" width="22" height="16" fill="#141922" stroke="#1d232d" rx="2"/><rect x="598" y="132" width="22" height="16" fill="#141922" stroke="#1d232d" rx="2"/><rect x="624" y="132" width="22" height="16" fill="#141922" stroke="#1d232d" rx="2"/><rect x="650" y="132" width="22" height="16" fill="#141922" stroke="#1d232d" rx="2"/><rect x="676" y="132" width="22" height="16" fill="#141922" stroke="#1d232d" rx="2"/><rect x="702" y="132" width="22" height="16" fill="#141922" stroke="#1d232d" rx="2"/><rect x="728" y="132" width="22" height="16" fill="#141922" stroke="#1d232d" rx="2"/><rect x="754" y="132" width="22" height="16" fill="#141922" stroke="#1d232d" rx="2"/><rect x="780" y="132" width="22" height="16" fill="#141922" stroke="#1d232d" rx="2"/><rect x="806" y="132" width="22" height="16" fill="#141922" stroke="#1d232d" rx="2"/><rect x="832" y="132" width="22" height="16" fill="#141922" stroke="#1d232d" rx="2"/><rect x="26" y="84" width="22" height="16" fill="#4a3323" stroke="none" rx="2" class="fx m0"/><rect x="52" y="84" width="22" height="16" fill="#4a3323" stroke="none" rx="2" class="fx m1"/><rect x="78" y="84" width="22" height="16" fill="#4a3323" stroke="none" rx="2" class="fx m2"/><rect x="104" y="84" width="22" height="16" fill="#4a3323" stroke="none" rx="2" class="fx m3"/><rect x="130" y="84" width="22" height="16" fill="#4a3323" stroke="none" rx="2" class="fx m4"/><rect x="156" y="84" width="22" height="16" fill="#4a3323" stroke="none" rx="2" class="fx m5"/><rect x="182" y="84" width="22" height="16" fill="#4a3323" stroke="none" rx="2" class="fx m6"/><rect x="208" y="84" width="22" height="16" fill="#4a3323" stroke="none" rx="2" class="fx m7"/><rect x="234" y="84" width="22" height="16" fill="#4a3323" stroke="none" rx="2" class="fx m8"/><rect x="260" y="84" width="22" height="16" fill="#4a3323" stroke="none" rx="2" class="fx m9"/><rect x="286" y="84" width="22" height="16" fill="#4a3323" stroke="none" rx="2" class="fx m10"/><rect x="312" y="84" width="22" height="16" fill="#4a3323" stroke="none" rx="2" class="fx m11"/><rect x="338" y="84" width="22" height="16" fill="#4a3323" stroke="none" rx="2" class="fx m12"/><rect x="364" y="84" width="22" height="16" fill="#4a3323" stroke="none" rx="2" class="fx m13"/><rect x="390" y="84" width="22" height="16" fill="#5a3d24" stroke="none" rx="2" class="fx m14"/><rect x="416" y="84" width="22" height="16" fill="#5a3d24" stroke="none" rx="2" class="fx m15"/><rect x="442" y="84" width="22" height="16" fill="#5a3d24" stroke="none" rx="2" class="fx m16"/><rect x="468" y="84" width="22" height="16" fill="#5a3d24" stroke="none" rx="2" class="fx m17"/><rect x="494" y="84" width="22" height="16" fill="#5a3d24" stroke="none" rx="2" class="fx m18"/><rect x="520" y="84" width="22" height="16" fill="#5a3d24" stroke="none" rx="2" class="fx m19"/><rect x="546" y="84" width="22" height="16" fill="#5a3d24" stroke="none" rx="2" class="fx m20"/><rect x="572" y="84" width="22" height="16" fill="#5a3d24" stroke="none" rx="2" class="fx m21"/><rect x="598" y="84" width="22" height="16" fill="#ff7a2f" stroke="none" rx="2" class="fx m22"/><rect x="624" y="84" width="22" height="16" fill="#ff7a2f" stroke="none" rx="2" class="fx m23"/><rect x="650" y="84" width="22" height="16" fill="#ff7a2f" stroke="none" rx="2" class="fx m24"/><rect x="676" y="84" width="22" height="16" fill="#ff7a2f" stroke="none" rx="2" class="fx m25"/><rect x="702" y="84" width="22" height="16" fill="#ff7a2f" stroke="none" rx="2" class="fx m26"/><rect x="728" y="84" width="22" height="16" fill="#ff7a2f" stroke="none" rx="2" class="fx m27"/><rect x="754" y="84" width="22" height="16" fill="#ff7a2f" stroke="none" rx="2" class="fx m28"/><rect x="780" y="84" width="22" height="16" fill="#ff7a2f" stroke="none" rx="2" class="fx m29"/><rect x="806" y="84" width="22" height="16" fill="#ff7a2f" stroke="none" rx="2" class="fx m30"/><rect x="832" y="84" width="22" height="16" fill="#ff7a2f" stroke="none" rx="2" class="fx m31"/><rect x="26" y="108" width="22" height="16" fill="#ff7a2f" stroke="none" rx="2" class="fx m32"/><rect x="52" y="108" width="22" height="16" fill="#ff7a2f" stroke="none" rx="2" class="fx m33"/><rect x="78" y="108" width="22" height="16" fill="#ff7a2f" stroke="none" rx="2" class="fx m34"/><rect x="104" y="108" width="22" height="16" fill="#ff7a2f" stroke="none" rx="2" class="fx m35"/><rect x="130" y="108" width="22" height="16" fill="#ff7a2f" stroke="none" rx="2" class="fx m36"/><rect x="156" y="108" width="22" height="16" fill="#ff7a2f" stroke="none" rx="2" class="fx m37"/><rect x="182" y="108" width="22" height="16" fill="#ff7a2f" stroke="none" rx="2" class="fx m38"/><rect x="208" y="108" width="22" height="16" fill="#ff7a2f" stroke="none" rx="2" class="fx m39"/><rect x="234" y="108" width="22" height="16" fill="#ff7a2f" stroke="none" rx="2" class="fx m40"/><rect x="260" y="108" width="22" height="16" fill="#ff7a2f" stroke="none" rx="2" class="fx m41"/><rect x="286" y="108" width="22" height="16" fill="#ff7a2f" stroke="none" rx="2" class="fx m42"/><rect x="312" y="108" width="22" height="16" fill="#ff7a2f" stroke="none" rx="2" class="fx m43"/><rect x="338" y="108" width="22" height="16" fill="#ff7a2f" stroke="none" rx="2" class="fx m44"/><rect x="364" y="108" width="22" height="16" fill="#ff7a2f" stroke="none" rx="2" class="fx m45"/><rect x="390" y="108" width="22" height="16" fill="#a78bfa" stroke="none" rx="2" class="fx m46"/><rect x="416" y="108" width="22" height="16" fill="#a78bfa" stroke="none" rx="2" class="fx m47"/><rect x="442" y="108" width="22" height="16" fill="#a78bfa" stroke="none" rx="2" class="fx m48"/><rect x="468" y="108" width="22" height="16" fill="#a78bfa" stroke="none" rx="2" class="fx m49"/><rect x="494" y="108" width="22" height="16" fill="#a78bfa" stroke="none" rx="2" class="fx m50"/><rect x="520" y="108" width="22" height="16" fill="#a78bfa" stroke="none" rx="2" class="fx m51"/><rect x="546" y="108" width="22" height="16" fill="#a78bfa" stroke="none" rx="2" class="fx m52"/><rect x="572" y="108" width="22" height="16" fill="#a78bfa" stroke="none" rx="2" class="fx m53"/><rect x="598" y="108" width="22" height="16" fill="#a78bfa" stroke="none" rx="2" class="fx m54"/><rect x="624" y="108" width="22" height="16" fill="#a78bfa" stroke="none" rx="2" class="fx m55"/><rect x="650" y="108" width="22" height="16" fill="#a78bfa" stroke="none" rx="2" class="fx m56"/><rect x="676" y="108" width="22" height="16" fill="#a78bfa" stroke="none" rx="2" class="fx m57"/><rect x="702" y="108" width="22" height="16" fill="#a78bfa" stroke="none" rx="2" class="fx m58"/><rect x="728" y="108" width="22" height="16" fill="#a78bfa" stroke="none" rx="2" class="fx m59"/><rect x="754" y="108" width="22" height="16" fill="#a78bfa" stroke="none" rx="2" class="fx m60"/><rect x="780" y="108" width="22" height="16" fill="#a78bfa" stroke="none" rx="2" class="fx m61"/><rect x="806" y="108" width="22" height="16" fill="#a78bfa" stroke="none" rx="2" class="fx m62"/><rect x="832" y="108" width="22" height="16" fill="#a78bfa" stroke="none" rx="2" class="fx m63"/><rect x="26" y="132" width="22" height="16" fill="#a78bfa" stroke="none" rx="2" class="fx transient m64"/><rect x="52" y="132" width="22" height="16" fill="#a78bfa" stroke="none" rx="2" class="fx transient m65"/><rect x="78" y="132" width="22" height="16" fill="#a78bfa" stroke="none" rx="2" class="fx transient m66"/><rect x="104" y="132" width="22" height="16" fill="#a78bfa" stroke="none" rx="2" class="fx transient m67"/><rect x="130" y="132" width="22" height="16" fill="#a78bfa" stroke="none" rx="2" class="fx transient m68"/><rect x="156" y="132" width="22" height="16" fill="#a78bfa" stroke="none" rx="2" class="fx transient m69"/><rect x="182" y="132" width="22" height="16" fill="#a78bfa" stroke="none" rx="2" class="fx transient m70"/><rect x="208" y="132" width="22" height="16" fill="#a78bfa" stroke="none" rx="2" class="fx transient m71"/><rect x="234" y="132" width="22" height="16" fill="#a78bfa" stroke="none" rx="2" class="fx transient m72"/><rect x="260" y="132" width="22" height="16" fill="#a78bfa" stroke="none" rx="2" class="fx transient m73"/><rect x="26" y="190" width="12" height="12" fill="#4a3323" stroke="#1d232d" rx="2"/><text x="46" y="200" fill="#69737f" font-size="11">kernel image</text><rect x="142.4" y="190" width="12" height="12" fill="#ff7a2f" stroke="#1d232d" rx="2"/><text x="162.4" y="200" fill="#69737f" font-size="11">kernel heap</text><rect x="251.60000000000002" y="190" width="12" height="12" fill="#a78bfa" stroke="#1d232d" rx="2"/><text x="271.6" y="200" fill="#69737f" font-size="11">user pages</text><rect x="353.6" y="190" width="12" height="12" fill="#141922" stroke="#1d232d" rx="2"/><text x="373.6" y="200" fill="#69737f" font-size="11">free</text><text x="854" y="200" fill="#69737f" font-size="11.5" text-anchor="end" class="fx transient k0">used   14</text><text x="854" y="200" fill="#69737f" font-size="11.5" text-anchor="end" class="fx transient k1">used   22</text><text x="854" y="200" fill="#69737f" font-size="11.5" text-anchor="end" class="fx transient k2">used   46</text><text x="854" y="200" fill="#69737f" font-size="11.5" text-anchor="end" class="fx transient k3">used   64</text><text x="854" y="200" fill="#69737f" font-size="11.5" text-anchor="end" class="fx transient k4">used   74</text><text x="854" y="200" fill="#ffb45c" font-size="11.5" text-anchor="end" class="fx k5">used   64   free() returned 10 frames</text></svg>